PathFileType	4	(X/Y/Z)	5_coords_data.trc
DataRate	CameraRate	NumFrames	NumMarkers	Units	OrigDataRate	OrigDataStartFrame	OrigNumFrames
30.0	30.0	7	21	m	30.0	10	59
Frame#	Time	THUMB_TIP	THUMB_IP	THUMB_MCP	THUMB_CMC	INDEX_TIP	INDEX_DIP	INDEX_PIP	INDEX_MCP	MIDDLE_TIP	MIDDLE_DIP	MIDDLE_PIP	MIDDLE_MCP	RING_TIP	RING_DIP	RING_PIP	RING_MCP	PINKY_TIP	PINKY_DIP	PINKY_PIP	PINKY_MCP	WRIST
X1	Y1	Z1	X2	Y2	Z2	X3	Y3	Z3	X4	Y4	Z4	X5	Y5	Z5	X6	Y6	Z6	X7	Y7	Z7	X8	Y8	Z8	X9	Y9	Z9	X10	Y10	Z10	X11	Y11	Z11	X12	Y12	Z12	X13	Y13	Z13	X14	Y14	Z14	X15	Y15	Z15	X16	Y16	Z16	X17	Y17	Z17	X18	Y18	Z18	X19	Y19	Z19	X20	Y20	Z20	X21	Y21	Z21
9	0.3	-0.02909480094909668	-0.15383700561523436	0.970635986328125	-0.024207000732421876	-0.13344099426269532	0.986593994140625	-0.025543399810791016	-0.12279299926757813	1.0158599853515624	-0.021874399185180665	-0.09338890075683594	1.031469970703125	-0.009474780082702637	-0.09871330261230468	1.018469970703125	-0.00489247989654541	-0.10265200042724609	0.997989013671875	-0.008961030006408691	-0.10835800170898438	0.975416015625	-0.04916429901123047	-0.10776200103759766	0.9823359985351563	-0.012496000289916992	-0.08647650146484374	1.0160499877929687	-0.0030292201042175287	-0.08617240142822266	0.9979879760742187	-0.008473389625549317	-0.08907420349121094	0.970427978515625	-0.05046429824829102	-0.08842549896240234	0.9780040283203125	-0.0168528995513916	-0.07120099639892578	1.0149199829101563	-0.005526460170745849	-0.07022219848632813	0.9993270263671875	-0.0076456298828125	-0.06997760009765625	0.973333984375	-0.04746979904174805	-0.06965730285644531	0.9790349731445313	-0.01898789978027344	-0.05733599853515625	1.011469970703125	-0.0077781200408935545	-0.056277698516845706	0.9972969970703125	-0.009735130310058593	-0.054518100738525394	0.979906005859375	-0.03906280136108398	-0.05184569931030274	0.9818889770507813	-0.034127201080322266	-0.06259590148925781	1.0468900146484375
10	0.3333333333333333	-0.029049800872802733	-0.15368600463867188	0.9706400146484375	-0.02417650032043457	-0.13332899475097656	0.986635009765625	-0.025472000122070314	-0.12261000061035156	1.0159099731445314	-0.021775999069213868	-0.09321389770507812	1.0314599609375	-0.009310799598693848	-0.098506103515625	1.0183599853515626	-0.004901050090789795	-0.1025719985961914	0.9981090087890625	-0.008855910301208495	-0.10826499938964844	0.9755679931640625	-0.049139801025390624	-0.10763800048828125	0.9823060302734375	-0.012080900192260742	-0.08636640167236329	1.0161500244140624	-0.002976239919662475	-0.08608910369873046	0.9979819946289062	-0.00857958984375	-0.08903949737548827	0.9703489990234375	-0.05039929962158203	-0.08828669738769532	0.9780460205078125	-0.016475200653076172	-0.07118740081787109	1.0153699951171875	-0.005457399845123291	-0.0701237030029297	0.9993759765625	-0.007594600200653077	-0.0698927993774414	0.973510009765625	-0.04742470169067383	-0.06955390167236328	0.979052978515625	-0.018705900192260743	-0.05734809875488281	1.0114199829101562	-0.007724030017852783	-0.056209598541259766	0.9972550048828125	-0.009722370147705078	-0.054430999755859376	0.9799080200195313	-0.03903639984130859	-0.05175479888916015	0.9819760131835937	-0.03415919876098633	-0.0624744987487793	1.04706005859375
11	0.36666666666666664	-0.028878400802612305	-0.15350100708007813	0.9706290283203125	-0.024050899505615234	-0.13313999938964843	0.9866840209960938	-0.025409500122070314	-0.12254399871826172	1.0158599853515624	-0.02182830047607422	-0.09320369720458985	1.0316500244140625	-0.009108619689941406	-0.09836959838867188	1.018469970703125	-0.004806970119476318	-0.10245099639892578	0.9981320190429688	-0.008734040260314942	-0.10810099792480468	0.9756580200195313	-0.04905390167236328	-0.10747799682617187	0.9824550170898437	-0.011905900001525879	-0.08617769622802735	1.0164299926757812	-0.0028596699237823484	-0.08591829681396485	0.9980369873046875	-0.008463080406188966	-0.08886699676513672	0.970427001953125	-0.050309898376464844	-0.08813880157470703	0.978135009765625	-0.016172500610351564	-0.07100879669189453	1.015530029296875	-0.0053435201644897465	-0.06996810150146485	0.9994349975585938	-0.0074963998794555665	-0.06968160247802735	0.9734869995117188	-0.04735110092163086	-0.06938719940185546	0.9791690063476562	-0.01888330078125	-0.057092300415039064	1.0115	-0.00769232988357544	-0.05602310180664063	0.997385986328125	-0.009607460021972656	-0.05423669815063477	0.9799140014648438	-0.039001998901367185	-0.051575298309326174	0.9820859985351562	-0.034039199829101564	-0.062379199981689455	1.0470999755859376
12	0.4	-0.028837299346923827	-0.15329100036621093	0.9706810302734376	-0.024040899276733398	-0.13296400451660156	0.9866829833984375	-0.025382699966430663	-0.12236100006103516	1.0159400024414063	-0.021777700424194336	-0.09285410308837891	1.0315400390625	-0.009147780418395996	-0.09813919830322265	1.0185900268554688	-0.0048589701652526854	-0.10225199890136719	0.9982550048828125	-0.008784660339355469	-0.10788200378417968	0.9755579833984375	-0.049019100189208985	-0.1072969970703125	0.9825050048828124	-0.012175399780273438	-0.08594159698486328	1.016	-0.002908819913864135	-0.0857031021118164	0.998031982421875	-0.008462619781494141	-0.08861699676513672	0.97047802734375	-0.05036399841308594	-0.08794110107421875	0.9781640014648437	-0.015370200157165528	-0.07087979888916016	1.0184500122070312	-0.00538470983505249	-0.06974430084228515	0.999427001953125	-0.007598810195922852	-0.0694530029296875	0.97343798828125	-0.047378700256347654	-0.06919400024414063	0.9792000122070312	-0.01896969985961914	-0.056946800231933596	1.01172998046875	-0.00769773006439209	-0.055837799072265625	0.9973690185546875	-0.00969810962677002	-0.05402330017089844	0.9799299926757813	-0.03902840042114258	-0.051373500823974606	0.982114013671875	-0.03409049987792969	-0.062176300048828126	1.0471500244140626
13	0.43333333333333335	-0.02896820068359375	-0.15288800048828124	0.9704349975585937	-0.0241210994720459	-0.13263900756835936	0.9865180053710938	-0.025510400772094727	-0.12212400054931641	1.0157999877929687	-0.021849399566650392	-0.0927301025390625	1.03147998046875	-0.009285360336303712	-0.09791320037841797	1.0187000122070313	-0.0048587298393249516	-0.10198799896240235	0.9979829711914062	-0.008995409965515136	-0.1076510009765625	0.9754340209960938	-0.049134899139404296	-0.10701300048828125	0.9824249877929687	-0.01232979965209961	-0.08581210327148438	1.0161699829101563	-0.003113490104675293	-0.08551920318603516	0.9978889770507813	-0.00858390998840332	-0.08837259674072266	0.97047900390625	-0.050475399017333986	-0.08769819641113281	0.9781820068359375	-0.017186399459838866	-0.07064649963378906	1.0148099975585938	-0.005575449943542481	-0.06950160217285156	0.9993820190429688	-0.00776347017288208	-0.06919930267333985	0.9734169921875	-0.04755390167236328	-0.06895439910888672	0.979239013671875	-0.019189300537109374	-0.05673260116577149	1.0107999877929688	-0.0078008599281311035	-0.055581600189208984	0.9974169921875	-0.009858030319213867	-0.05373699951171875	0.98	-0.03919380187988281	-0.051159198760986326	0.98210302734375	-0.03424399948120117	-0.06202450180053711	1.0470899658203126
14	0.4666666666666667	-0.028963199615478517	-0.1526490020751953	0.9702930297851563	-0.02419230079650879	-0.13239300537109375	0.986385009765625	-0.02556760025024414	-0.12194599914550781	1.015739990234375	-0.022044599533081053	-0.09259200286865234	1.03143994140625	-0.009554280281066894	-0.09782569885253906	1.0190399780273438	-0.005063240051269531	-0.10180599975585937	0.9979439697265625	-0.00913794994354248	-0.10740299987792969	0.9753090209960937	-0.04912749862670898	-0.10679000091552734	0.9822239990234375	-0.012272100448608398	-0.08557019805908203	1.0169299926757813	-0.0031026298999786367	-0.08527059936523437	0.9978720092773438	-0.00870503044128418	-0.08807659912109375	0.9703309936523438	-0.05059579849243164	-0.0873936996459961	0.9781010131835938	-0.017257200241088868	-0.07048909759521485	1.0148300170898437	-0.005682559967041015	-0.06929550170898438	0.999322998046875	-0.00786387014389038	-0.0689197998046875	0.9733359985351563	-0.04766759872436523	-0.06871659851074219	0.9791710205078125	-0.019270200729370118	-0.05660300064086914	1.011280029296875	-0.007968989849090577	-0.05535919952392578	0.9973469848632812	-0.009968159675598144	-0.05349359893798828	0.9799249877929688	-0.03933570098876953	-0.05091749954223633	0.9820540161132812	-0.034337600708007815	-0.061874099731445316	1.04702001953125
15	0.5	-0.028900699615478517	-0.15244700622558593	0.9701179809570313	-0.024194499969482423	-0.1321929931640625	0.9862520141601563	-0.025669500350952147	-0.12181800079345703	1.0156599731445313	-0.02190880012512207	-0.09255239868164063	1.0312900390625	-0.009647290229797363	-0.09786859893798829	1.0186599731445312	-0.004910649776458741	-0.1015790023803711	0.9976649780273438	-0.009209540367126465	-0.10727200317382812	0.9752009887695312	-0.049181800842285156	-0.10654199981689454	0.9822000122070312	-0.012348899841308594	-0.08541609954833984	1.0168900146484374	-0.003214940071105957	-0.08511029815673828	0.9977410278320312	-0.008654669761657715	-0.08787370300292968	0.9702969970703125	-0.05056079864501953	-0.08718890380859375	0.97802001953125	-0.017189599990844726	-0.07025679779052735	1.0144400024414062	-0.005623579978942871	-0.06913719940185546	0.999344970703125	-0.007844550132751465	-0.06869419860839844	0.9732969970703125	-0.04763010025024414	-0.06848889923095704	0.9790709838867188	-0.01909320068359375	-0.05647090148925781	1.0115700073242186	-0.007857329845428467	-0.05522660064697266	0.9972999877929688	-0.009926819801330566	-0.05329690170288086	0.9799190063476563	-0.039293201446533206	-0.050672100067138674	0.9820759887695313	-0.034367698669433594	-0.06178260040283203	1.04697998046875
